<svg xmlns="http://www.w3.org/2000/svg" width="512" height="512" viewBox="0 0 512 512">
  <defs>
    <clipPath id="roundCrop">
      <circle cx="256" cy="256" r="238"/>
    </clipPath>
  </defs>
  <g clip-path="url(#roundCrop)">
    <circle cx="256" cy="256" r="238" fill="#fff"/>
    <g fill="none" stroke="#123B91" stroke-width="12" stroke-linecap="round" stroke-linejoin="round">

    <path d="M178 196v-18c0-43 35-78 78-78s78 35 78 78v18"/>
    <path d="M163 196h186"/>
    <path d="M205 197v24c0 34 23 62 51 62s51-28 51-62v-24"/>
    <path d="M221 276v28l35 27 35-27v-28"/>
    <path d="M221 299c-51 12-82 39-82 83v37h234v-37c0-44-31-71-82-83"/>
    <path d="M242 101v48h28v-48"/>

    <path d="M318 326l33 12v31c0 24-14 42-33 50-19-8-33-26-33-50v-31z"/>
    <path d="M300 369l13 13 25-29"/>

    </g>
  </g>
  <circle cx="256" cy="256" r="238" fill="none" stroke="#123B91" stroke-width="10"/>
</svg>
